# xmcd
# 
# Track frame offsets:
#     150
#     15039
#     39587
#     58906
#     73840
#     89361
#     106048
#     135937
#     152027
#     169245
#     187868
#     193655
# 
# Disc length: 2852
# 
# Revision: 1
# Processed by: cddbd v1.5.2PL0 Copyright (c) Steve Scherf et al.
# Submitted via: BonkEnc v1.0beta3
# 
DISCID=920b220c
DTITLE=Samenakoa - The March
DYEAR=2009
DGENRE=Jazz
TTITLE0=The March
TTITLE1=Everyone
TTITLE2=Dans ces momentsje t'aime
TTITLE3=Contemplation Desastre
TTITLE4=D.U.M.B.O.
TTITLE5=Earthquake
TTITLE6=Incantation
TTITLE7=Cold Clash
TTITLE8=Sloneczka
TTITLE9=Southern breeze
TTITLE10=Beautiful Body Part 1
TTITLE11=Beautiful Body Part 2
EXTD=YEAR: 2009
EXTT0=
EXTT1=
EXTT2=
EXTT3=
EXTT4=
EXTT5=
EXTT6=
EXTT7=
EXTT8=
EXTT9=
EXTT10=
EXTT11=
PLAYORDER=
